<!DOCTYPE svg PUBLIC "-//W3C//DTD SVG 20010904//EN" "http://www.w3.org/TR/2001/REC-SVG-20010904/DTD/svg10.dtd">
<svg version="1.0" xmlns="http://www.w3.org/2000/svg" width="28px" height="28px" viewBox="0 0 1000 1000" preserveAspectRatio="xMidYMid meet">
<g id="layer101" fill="#000000" stroke="none">
 <path d="M102 940 c-67 -41 -72 -62 -72 -285 0 -223 5 -244 72 -285 31 -19 51 -20 393 -20 342 0 362 1 393 20 67 41 72 62 72 285 0 223 -5 244 -72 285 -31 19 -51 20 -393 20 -342 0 -362 -1 -393 -20z m493 -94 c32 -14 35 -19 35 -56 l0 -42 -31 26 c-23 20 -41 26 -77 26 -74 -1 -102 -34 -102 -120 0 -86 28 -119 102 -120 36 0 54 6 77 26 l31 26 0 -41 c0 -35 -4 -43 -30 -56 -17 -9 -55 -15 -91 -15 -117 0 -179 63 -179 181 0 78 28 133 80 160 42 23 136 25 185 5z"/>
 <path d="M20 190 l0 -120 30 0 c29 0 30 2 30 45 l0 45 45 0 45 0 0 -45 c0 -43 1 -45 30 -45 l30 0 0 120 0 120 -30 0 c-30 0 -30 -1 -30 -55 l0 -55 -45 0 -45 0 0 55 c0 54 0 55 -30 55 l-30 0 0 -120z"/>
 <path d="M340 210 l0 -100 -35 0 c-28 0 -35 -4 -35 -20 0 -19 7 -20 100 -20 93 0 100 1 100 20 0 16 -7 20 -35 20 l-35 0 0 100 0 100 -30 0 -30 0 0 -100z"/>
 <path d="M510 189 l0 -120 42 3 c39 3 42 6 57 46 8 23 18 42 22 42 4 0 15 -20 25 -45 16 -43 19 -45 55 -45 l39 0 0 120 0 120 -30 0 -30 0 -1 -67 -1 -68 -15 38 c-13 30 -21 37 -43 37 -22 0 -30 -7 -43 -37 l-15 -38 -1 68 -1 67 -30 0 -30 0 0 -121z"/>
 <path d="M810 190 l0 -120 30 0 30 0 0 100 0 100 50 0 c43 0 50 3 50 20 0 18 -7 20 -80 20 l-80 0 0 -120z"/>
 </g>

</svg>